<mxfile host="Electron" modified="2024-04-24T10:42:13.494Z" agent="Mozilla/5.0 (Windows NT 10.0; Win64; x64) AppleWebKit/537.36 (KHTML, like Gecko) draw.io/24.2.5 Chrome/120.0.6099.109 Electron/28.1.0 Safari/537.36" etag="M231mSx1UxZHUQ9F5chB" version="24.2.5" type="device">
  <diagram name="Page-1" id="vOXC9VEUfJLqcLpqnig4">
    <mxGraphModel dx="1221" dy="823" grid="1" gridSize="10" guides="1" tooltips="1" connect="1" arrows="1" fold="1" page="1" pageScale="1" pageWidth="850" pageHeight="1100" math="0" shadow="0">
      <root>
        <mxCell id="0" />
        <mxCell id="1" parent="0" />
        <mxCell id="WABzdhjK0j0SPu53DI3O-1" value="Laptop" style="swimlane;whiteSpace=wrap;html=1;startSize=40;" parent="1" vertex="1">
          <mxGeometry x="440" y="160" width="160" height="90" as="geometry" />
        </mxCell>
        <mxCell id="WABzdhjK0j0SPu53DI3O-2" value="+ getDescription() : void&lt;br&gt;+ getcost(): void" style="text;html=1;align=center;verticalAlign=middle;resizable=0;points=[];autosize=1;strokeColor=none;fillColor=none;" parent="WABzdhjK0j0SPu53DI3O-1" vertex="1">
          <mxGeometry x="5" y="45" width="150" height="40" as="geometry" />
        </mxCell>
        <mxCell id="FatcX1w2qZ2v0F56FnKU-25" style="edgeStyle=orthogonalEdgeStyle;rounded=0;orthogonalLoop=1;jettySize=auto;html=1;exitX=0.5;exitY=1;exitDx=0;exitDy=0;entryX=1;entryY=0.5;entryDx=0;entryDy=0;" parent="1" source="WABzdhjK0j0SPu53DI3O-9" target="FatcX1w2qZ2v0F56FnKU-1" edge="1">
          <mxGeometry relative="1" as="geometry" />
        </mxCell>
        <mxCell id="WABzdhjK0j0SPu53DI3O-9" value="decorator_pattern" style="swimlane;whiteSpace=wrap;html=1;startSize=40;" parent="1" vertex="1">
          <mxGeometry x="1157.17" y="160" width="160" height="100" as="geometry" />
        </mxCell>
        <mxCell id="WABzdhjK0j0SPu53DI3O-10" value="+ main() : void&lt;div&gt;&lt;br/&gt;&lt;/div&gt;" style="text;html=1;align=center;verticalAlign=middle;resizable=0;points=[];autosize=1;strokeColor=none;fillColor=none;" parent="WABzdhjK0j0SPu53DI3O-9" vertex="1">
          <mxGeometry x="30" y="60" width="100" height="40" as="geometry" />
        </mxCell>
        <mxCell id="WABzdhjK0j0SPu53DI3O-14" value="&amp;lt;&amp;lt;Interface&amp;gt;&amp;gt;" style="text;html=1;align=center;verticalAlign=middle;resizable=0;points=[];autosize=1;strokeColor=none;fillColor=none;" parent="1" vertex="1">
          <mxGeometry x="470" y="130" width="100" height="30" as="geometry" />
        </mxCell>
        <mxCell id="WABzdhjK0j0SPu53DI3O-17" value="asks" style="text;html=1;align=center;verticalAlign=middle;resizable=0;points=[];autosize=1;strokeColor=none;fillColor=none;" parent="1" vertex="1">
          <mxGeometry x="1130" y="290" width="50" height="30" as="geometry" />
        </mxCell>
        <mxCell id="FatcX1w2qZ2v0F56FnKU-20" style="edgeStyle=orthogonalEdgeStyle;rounded=0;orthogonalLoop=1;jettySize=auto;html=1;exitX=0;exitY=0.5;exitDx=0;exitDy=0;entryX=1;entryY=0.5;entryDx=0;entryDy=0;" parent="1" source="FatcX1w2qZ2v0F56FnKU-1" target="WABzdhjK0j0SPu53DI3O-1" edge="1">
          <mxGeometry relative="1" as="geometry" />
        </mxCell>
        <mxCell id="FatcX1w2qZ2v0F56FnKU-1" value="LaptopDecorator" style="swimlane;whiteSpace=wrap;html=1;startSize=40;" parent="1" vertex="1">
          <mxGeometry x="870" y="275" width="160" height="90" as="geometry" />
        </mxCell>
        <mxCell id="FatcX1w2qZ2v0F56FnKU-2" value="+ decoration() : void" style="text;html=1;align=center;verticalAlign=middle;resizable=0;points=[];autosize=1;strokeColor=none;fillColor=none;" parent="FatcX1w2qZ2v0F56FnKU-1" vertex="1">
          <mxGeometry x="15" y="50" width="130" height="30" as="geometry" />
        </mxCell>
        <mxCell id="FatcX1w2qZ2v0F56FnKU-13" style="edgeStyle=orthogonalEdgeStyle;rounded=0;orthogonalLoop=1;jettySize=auto;html=1;exitX=0.5;exitY=0;exitDx=0;exitDy=0;entryX=0.5;entryY=1;entryDx=0;entryDy=0;" parent="1" source="FatcX1w2qZ2v0F56FnKU-8" target="WABzdhjK0j0SPu53DI3O-1" edge="1">
          <mxGeometry relative="1" as="geometry" />
        </mxCell>
        <mxCell id="FatcX1w2qZ2v0F56FnKU-8" value="OnlyLaptop" style="swimlane;whiteSpace=wrap;html=1;startSize=40;" parent="1" vertex="1">
          <mxGeometry x="440" y="365" width="160" height="90" as="geometry" />
        </mxCell>
        <mxCell id="EmColjGe2HTPPe5KxU1Y-1" value="+ getDescription() : void&lt;br&gt;+ getcost(): void" style="text;html=1;align=center;verticalAlign=middle;resizable=0;points=[];autosize=1;strokeColor=none;fillColor=none;" vertex="1" parent="FatcX1w2qZ2v0F56FnKU-8">
          <mxGeometry x="10" y="50" width="150" height="40" as="geometry" />
        </mxCell>
        <mxCell id="FatcX1w2qZ2v0F56FnKU-18" style="edgeStyle=orthogonalEdgeStyle;rounded=0;orthogonalLoop=1;jettySize=auto;html=1;exitX=0.5;exitY=0;exitDx=0;exitDy=0;entryX=0.5;entryY=1;entryDx=0;entryDy=0;" parent="1" source="FatcX1w2qZ2v0F56FnKU-14" target="FatcX1w2qZ2v0F56FnKU-1" edge="1">
          <mxGeometry relative="1" as="geometry" />
        </mxCell>
        <mxCell id="FatcX1w2qZ2v0F56FnKU-14" value="CoverDecorator" style="swimlane;whiteSpace=wrap;html=1;startSize=40;" parent="1" vertex="1">
          <mxGeometry x="750" y="475" width="170" height="145" as="geometry" />
        </mxCell>
        <mxCell id="EmColjGe2HTPPe5KxU1Y-2" value="+ getDescription() : void&lt;br&gt;+ getcost(): void" style="text;html=1;align=center;verticalAlign=middle;resizable=0;points=[];autosize=1;strokeColor=none;fillColor=none;" vertex="1" parent="FatcX1w2qZ2v0F56FnKU-14">
          <mxGeometry x="10" y="75" width="150" height="40" as="geometry" />
        </mxCell>
        <mxCell id="FatcX1w2qZ2v0F56FnKU-19" style="edgeStyle=orthogonalEdgeStyle;rounded=0;orthogonalLoop=1;jettySize=auto;html=1;exitX=0.5;exitY=0;exitDx=0;exitDy=0;" parent="1" source="FatcX1w2qZ2v0F56FnKU-16" edge="1">
          <mxGeometry relative="1" as="geometry">
            <mxPoint x="950" y="365" as="targetPoint" />
          </mxGeometry>
        </mxCell>
        <mxCell id="FatcX1w2qZ2v0F56FnKU-16" value="StickerDecorator" style="swimlane;whiteSpace=wrap;html=1;startSize=40;" parent="1" vertex="1">
          <mxGeometry x="990" y="475" width="160" height="145" as="geometry" />
        </mxCell>
        <mxCell id="EmColjGe2HTPPe5KxU1Y-3" value="+ getDescription() : void&lt;br&gt;+ getcost(): void" style="text;html=1;align=center;verticalAlign=middle;resizable=0;points=[];autosize=1;strokeColor=none;fillColor=none;" vertex="1" parent="FatcX1w2qZ2v0F56FnKU-16">
          <mxGeometry x="10" y="75" width="150" height="40" as="geometry" />
        </mxCell>
        <mxCell id="FatcX1w2qZ2v0F56FnKU-22" value="implements" style="text;html=1;align=center;verticalAlign=middle;resizable=0;points=[];autosize=1;strokeColor=none;fillColor=none;" parent="1" vertex="1">
          <mxGeometry x="740" y="290" width="80" height="30" as="geometry" />
        </mxCell>
        <mxCell id="FatcX1w2qZ2v0F56FnKU-23" value="extends" style="text;html=1;align=center;verticalAlign=middle;resizable=0;points=[];autosize=1;strokeColor=none;fillColor=none;" parent="1" vertex="1">
          <mxGeometry x="915" y="425" width="70" height="30" as="geometry" />
        </mxCell>
        <mxCell id="FatcX1w2qZ2v0F56FnKU-24" value="implements" style="text;html=1;align=center;verticalAlign=middle;resizable=0;points=[];autosize=1;strokeColor=none;fillColor=none;" parent="1" vertex="1">
          <mxGeometry x="425" y="300" width="80" height="30" as="geometry" />
        </mxCell>
      </root>
    </mxGraphModel>
  </diagram>
</mxfile>
